<?xml version="1.0" standalone="no"?>
<!DOCTYPE svg PUBLIC "-//W3C//DTD SVG 1.1//EN" "http://www.w3.org/Graphics/SVG/1.1/DTD/svg11.dtd" >
<svg xmlns="http://www.w3.org/2000/svg">
<metadata>Generated by IcoMoon</metadata>
<defs>
<font id="template-gd" horiz-adv-x="1024">
<font-face units-per-em="1024" ascent="960" descent="-64" />
<missing-glyph horiz-adv-x="1024" />
<glyph unicode="&#x20;" horiz-adv-x="512" d="" />
<glyph unicode="&#x41;" glyph-name="display" d="M950.857 402.286c-54.286 84-128.571 156-217.714 201.714 22.857-38.857 34.857-83.429 34.857-128.571 0-141.143-114.857-256-256-256s-256 114.857-256 256c0 45.143 12 89.714 34.857 128.571-89.143-45.714-163.429-117.714-217.714-201.714 97.714-150.857 255.429-256 438.857-256s341.143 105.143 438.857 256zM539.429 621.714c0 14.857-12.571 27.429-27.429 27.429-95.429 0-173.714-78.286-173.714-173.714 0-14.857 12.571-27.429 27.429-27.429s27.429 12.571 27.429 27.429c0 65.143 53.714 118.857 118.857 118.857 14.857 0 27.429 12.571 27.429 27.429zM1024 402.286c0-14.286-4.571-27.429-11.429-39.429-105.143-173.143-297.714-289.714-500.571-289.714s-395.429 117.143-500.571 289.714c-6.857 12-11.429 25.143-11.429 39.429s4.571 27.429 11.429 39.429c105.143 172.571 297.714 289.714 500.571 289.714s395.429-117.143 500.571-289.714c6.857-12 11.429-25.143 11.429-39.429z" />
<glyph unicode="&#x42;" glyph-name="phone" d="M452.934 636.124c55.476 27.936 79.896 65.229 84.324 128.768 4.428 63.433-29.564 134.398-80.84 168.739-25.76 17.254-57.788 26.368-92.632 26.368-84.765 0-167.887-52.082-193.328-121.176-16.767-45.662-15.215-94.564-12.492-135.798 0.259-7.836 7.243-194.104 99.768-377.815l3.378-6.68c92.54-183.742 238.046-300.201 243.417-304.431 30.629-25.958 68.728-58.245 116.003-72.136 13.496-3.956 27.859-5.964 42.74-5.964 90.517 0 199.475 78.466 204.298 179.649 2.937 61.851-33.687 131.492-87.093 165.559-30.416 19.415-55.978 28.088-82.848 28.088-22.352 0-44.81-6.056-70.645-19.095-7.045-3.53-13.542-5.265-19.856-5.265-43.927 0-86.652 86.332-109.627 132.724l-19.232 38.206c-22.367 43.684-59.827 116.824-46.727 156.932 3.332 10.24 10.133 17.65 21.393 23.325zM424.085 428.113l18.867-37.46c32.835-66.339 82.437-166.579 164.175-166.579 15.824 0 31.709 3.956 47.229 11.762 36.943 18.624 56.13 17.848 93.377-5.949 35.011-22.336 60.953-71.254 59.051-111.362-2.861-60.253-75.301-121.663-143.512-121.663-9.099 0-17.711 1.172-25.592 3.484-34.919 10.255-66.202 36.776-94.564 60.801-1.415 1.111-141.367 113.431-227.638 284.742l-3.378 6.68c-86.272 171.311-93.225 350.64-93.347 353.425-2.358 36.015-3.819 77.34 8.84 111.818 16.509 44.84 77.614 81.327 136.194 81.327 22.732 0 43.060-5.554 58.762-16.098 33.185-22.215 56.906-72.258 54-113.918-2.967-42.588-14.409-60.223-51.002-78.649-25.958-13.070-43.41-32.85-51.885-58.808-20.936-64.194 22.002-148.046 50.424-203.552z" />
<glyph unicode="&#x43;" glyph-name="thin-location-1" d="M512 960c-212.787 0-392.533-179.763-392.533-392.533 0-143.65 66.321-297.95 191.761-446.225 94.123-111.223 186.829-179.149 190.737-181.982 2.987-2.167 6.519-3.26 10.035-3.26s7.049 1.092 10.035 3.26c3.908 2.833 96.614 70.758 190.737 181.982 125.44 148.275 191.761 302.575 191.761 446.225 0 212.77-179.746 392.533-392.533 392.533zM512-25.463c-59.119 46.217-358.4 295.066-358.4 592.93 0 194.27 164.13 358.4 358.4 358.4s358.4-164.13 358.4-358.4c0-297.591-299.298-546.662-358.4-592.93zM512 806.4c-131.755 0-238.933-107.179-238.933-238.933s107.179-238.933 238.933-238.933c131.755 0 238.933 107.179 238.933 238.933s-107.179 238.933-238.933 238.933zM512 362.667c-112.93 0-204.8 91.87-204.8 204.8s91.87 204.8 204.8 204.8 204.8-91.87 204.8-204.8-91.87-204.8-204.8-204.8z" />
<glyph unicode="&#x44;" glyph-name="thin-location-2" d="M512-64c5.393 0 10.479 2.56 13.705 6.895 14.080 18.978 344.695 466.756 344.695 658.705 0 197.632-160.785 358.4-358.4 358.4s-358.4-160.768-358.4-358.4c0-191.949 330.615-639.727 344.695-658.705 3.226-4.335 8.311-6.895 13.705-6.895zM512 925.867c178.807 0 324.267-145.459 324.267-324.267 0-159.607-260.915-531.575-324.267-619.52-63.351 87.945-324.267 459.913-324.267 619.52 0 178.807 145.459 324.267 324.267 324.267zM665.6 601.6c0 84.685-68.898 153.6-153.6 153.6s-153.6-68.915-153.6-153.6 68.898-153.6 153.6-153.6 153.6 68.915 153.6 153.6zM392.533 601.6c0 65.877 53.606 119.467 119.467 119.467s119.467-53.589 119.467-119.467-53.606-119.467-119.467-119.467c-65.86 0-119.467 53.589-119.467 119.467z" />
<glyph unicode="&#x45;" glyph-name="thin-location-3" d="M316.638 6.263c0.58-0.29 1.109-0.58 1.724-0.802 1.911-0.717 3.891-1.195 5.905-1.195s3.994 0.478 5.905 1.195c0.614 0.222 1.143 0.512 1.724 0.802 0.614 0.307 1.263 0.478 1.843 0.87l255.983 170.667c7.851 5.222 9.967 15.821 4.727 23.671-5.222 7.851-15.821 9.967-23.671 4.727l-229.444-152.986v675.789l273.067 182.050v-394.786c0-9.421 7.629-17.067 17.067-17.067s17.067 7.646 17.067 17.067v394.786l273.067-182.050v-212.736c0-9.421 7.629-17.067 17.067-17.067s17.067 7.646 17.067 17.067v221.867c0 5.7-2.85 11.025-7.595 14.199l-307.2 204.8c-0.58 0.393-1.229 0.563-1.843 0.87-0.58 0.29-1.109 0.58-1.724 0.802-1.894 0.7-3.84 1.161-5.82 1.178-0.034 0-0.051 0.017-0.085 0.017s-0.051-0.017-0.085-0.017c-1.98 0-3.925-0.478-5.82-1.178-0.614-0.222-1.161-0.512-1.724-0.819-0.614-0.307-1.263-0.478-1.843-0.87l-297.728-198.468-297.728 198.485c-5.239 3.499-11.981 3.806-17.51 0.853-5.564-2.97-9.028-8.755-9.028-15.053v-716.8c0-5.717 2.85-11.025 7.595-14.199l307.2-204.8c0.58-0.375 1.246-0.563 1.843-0.87zM34.133 911.036l273.067-182.033v-675.772l-273.067 182.033v675.772zM836.267 345.6c-47.053 0-85.333-38.281-85.333-85.333s38.281-85.333 85.333-85.333c47.053 0 85.333 38.281 85.333 85.333s-38.281 85.333-85.333 85.333zM836.267 209.067c-28.228 0-51.2 22.972-51.2 51.2s22.972 51.2 51.2 51.2 51.2-22.972 51.2-51.2-22.972-51.2-51.2-51.2zM836.267 448c-103.509 0-187.733-84.224-187.733-187.733 0-99.123 167.305-308.992 174.421-317.867 3.226-4.045 8.124-6.4 13.312-6.4s10.086 2.355 13.312 6.4c7.117 8.875 174.421 218.743 174.421 317.867 0 103.509-84.224 187.733-187.733 187.733zM836.267-19.268c-52.719 68.523-153.6 213.333-153.6 279.535 0 84.685 68.898 153.6 153.6 153.6s153.6-68.915 153.6-153.6c0-66.219-100.881-211.012-153.6-279.535z" />
<glyph unicode="&#x46;" glyph-name="thin-clock" d="M512 960c-282.317 0-512-229.683-512-512s229.683-512 512-512 512 229.683 512 512-229.683 512-512 512zM512-29.867c-263.509 0-477.867 214.357-477.867 477.867s214.357 477.867 477.867 477.867 477.867-214.357 477.867-477.867-214.357-477.867-477.867-477.867zM512 455.424v229.291c0 9.421-7.629 17.067-17.067 17.067s-17.067-7.646-17.067-17.067v-236.715c0-4.727 1.963-9.25 5.427-12.476l253.764-236.715c3.277-3.072 7.475-4.591 11.639-4.591 4.574 0 9.114 1.826 12.493 5.427 6.434 6.895 6.042 17.698-0.853 24.132l-248.337 231.646z" />
<glyph unicode="&#x47;" glyph-name="thin-fax" d="M555.042 857.6h193.673v-34.133h-193.673v34.133zM555.042 789.333h301.261v-34.133h-301.261v34.133zM938.667 721.067h-17.067v143.599l-95.334 95.334h-348.399v-238.933h-68.267c0 58.368-44.015 102.4-102.4 102.4h-136.533v119.467c0 9.421-7.629 17.067-17.067 17.067s-17.067-7.646-17.067-17.067v-123.221c-43.605-9.438-68.267-37.803-68.267-81.579v-36.352h-8.175c-33.126 0-60.092-26.965-60.092-60.109v-559.479c0-33.143 26.965-60.109 60.092-60.109h8.175v-0.751c0-54.238 37.308-85.333 102.4-85.333h136.533c59.085 0 102.007 43.025 102.366 102.4h529.101c43.861 0 85.333 41.472 85.333 85.333v517.939c0 30.686-23.159 79.394-85.333 79.394zM60.092 56.201c-14.302 0-25.958 11.657-25.958 25.975v559.497c0 14.319 11.657 25.975 25.958 25.975h8.175v-611.43h-8.175zM375.467 39.134c0-40.619-28.075-69.001-68.267-69.001h-136.533c-68.267 0-68.267 37.205-68.267 51.2v0.734h0.751v34.133h-0.751v611.447h0.751v34.133h-0.751v36.352c0 13.995 0 51.2 68.267 51.2h136.533c40.192 0 68.267-28.075 68.267-68.267v-681.933zM512 925.867h300.134l75.332-75.332v-129.468h-375.467v204.8zM989.867 123.733c0-24.883-26.317-51.2-51.2-51.2h-529.067v614.4h529.067c40.499 0 51.2-29.611 51.2-45.261v-517.939zM851.849 615.697h-305.715v-133.564h305.715v133.564zM817.715 516.267h-237.449v65.297h237.449v-65.297zM546.133 413.867h34.133v-34.133h-34.133v34.133zM682.667 413.867h34.133v-34.133h-34.133v34.133zM819.2 413.867h34.133v-34.133h-34.133v34.133zM546.133 311.467h34.133v-34.133h-34.133v34.133zM682.667 311.467h34.133v-34.133h-34.133v34.133zM819.2 311.467h34.133v-34.133h-34.133v34.133zM546.133 209.067h34.133v-34.133h-34.133v34.133zM682.667 209.067h34.133v-34.133h-34.133v34.133zM819.2 209.067h34.133v-34.133h-34.133v34.133z" />
<glyph unicode="&#x48;" glyph-name="thin-phone-1" d="M702.942-19.046c27.563-18.227 59.58-27.853 92.587-27.853 44.834 0 86.903 17.408 118.511 49.033l58.47 58.453c45.824 45.824 45.824 120.405 0 166.229l-106.581 106.581c-22.187 22.204-51.712 34.423-83.115 34.423s-60.928-12.22-83.149-34.423l-24.542-24.542c-108.305 90.044-212.309 194.065-302.234 302.251l24.559 24.559c45.824 45.824 45.824 120.405 0 166.229l-106.598 106.564c-22.187 22.204-51.712 34.441-83.115 34.441s-60.928-12.22-83.149-34.441l-58.419-58.453c-56.081-56.081-64.99-144.862-21.18-211.115 171.332-259.038 398.848-486.554 657.954-657.937zM90.3 825.873l58.436 58.453c15.77 15.753 36.727 24.439 59.017 24.439s43.23-8.67 58.982-24.439l106.598-106.581c32.512-32.529 32.512-85.436 0-117.965l-35.533-35.516c-6.195-6.195-6.69-16.094-1.126-22.886 96.785-118.153 210.466-231.851 328.755-328.789 6.775-5.581 16.691-5.086 22.886 1.126l35.516 35.516c15.77 15.753 36.727 24.439 59.017 24.439s43.23-8.67 58.982-24.422l106.581-106.581c32.512-32.529 32.512-85.453 0-117.965l-58.487-58.453c-25.156-25.173-58.675-39.049-94.362-39.049-26.3 0-51.814 7.68-73.762 22.187-255.283 168.875-479.471 393.045-648.311 648.294-34.935 52.821-27.836 123.529 16.811 168.192z" />
<glyph unicode="&#x49;" glyph-name="thin-phone-3" d="M588.646-39.697c24.013-15.872 51.917-24.252 80.674-24.252 39.049 0 75.725 15.172 103.253 42.735l50.091 50.091c40.209 40.209 40.209 105.643 0 145.852l-91.307 91.29c-19.49 19.49-45.38 30.225-72.926 30.225s-53.47-10.735-72.943-30.225l-19.456-19.456c-91.477 76.237-179.319 164.079-255.437 255.471l19.456 19.456c40.192 40.209 40.192 105.643 0 145.852l-91.324 91.307c-19.473 19.49-45.363 30.208-72.926 30.208-27.546 0-53.453-10.718-72.926-30.208l-50.091-50.074c-48.845-48.845-56.593-126.208-18.449-183.945 146.961-222.191 342.101-417.331 564.309-564.326zM66.918 684.425l50.091 50.074c13.039 13.039 30.362 20.207 48.794 20.207 18.449 0 35.772-7.168 48.794-20.207l91.324-91.307c26.897-26.897 26.897-70.69 0-97.587l-30.43-30.413c-6.195-6.212-6.707-16.094-1.126-22.886 82.995-101.342 180.497-198.844 281.958-281.993 6.793-5.564 16.674-5.069 22.886 1.126l30.413 30.413c13.056 13.039 30.379 20.224 48.811 20.224s35.772-7.185 48.794-20.224l91.307-91.29c26.88-26.914 26.88-70.69 0-97.587l-50.108-50.091c-21.094-21.111-49.203-32.734-79.121-32.734-22.050 0-43.435 6.434-61.833 18.603-218.419 144.469-410.214 336.282-554.684 554.667-29.218 44.271-23.279 103.578 14.131 141.005zM511.983 925.833c263.492 0 477.867-214.374 477.867-477.867 0-9.421 7.629-17.067 17.067-17.067s17.067 7.646 17.067 17.067c0 282.317-229.683 512-512 512-9.438 0-17.067-7.646-17.067-17.067s7.629-17.067 17.067-17.067zM511.983 753.681c168.567 0 305.715-137.148 305.715-305.715 0-9.421 7.629-17.067 17.067-17.067s17.067 7.646 17.067 17.067c0 187.392-152.457 339.849-339.849 339.849-9.438 0-17.067-7.646-17.067-17.067 0-9.438 7.629-17.067 17.067-17.067zM511.983 581.53c73.643 0 133.564-59.921 133.564-133.564 0-9.421 7.629-17.067 17.067-17.067s17.067 7.646 17.067 17.067c0 92.467-75.23 167.697-167.697 167.697-9.438 0-17.067-7.646-17.067-17.067 0-9.438 7.629-17.067 17.067-17.067z" />
<glyph unicode="&#x4a;" glyph-name="thin-phone-2" d="M512 960c-282.317 0-512-229.683-512-512s229.683-512 512-512c186.044 0 253.73 69.086 277.726 127.061 20.036 48.384 13.090 98.662 1.502 124.57l16.367 16.367c16.179 16.179 25.737 37.171 26.88 59.119 1.178 22.613-6.622 43.52-21.965 58.863l-66.662 66.679c-14.217 14.234-33.57 22.067-54.46 22.067-23.211 0-46.37-9.83-63.522-26.982l-13.824-13.824c-64.99 53.419-126.805 115.234-180.105 180.105l13.79 13.807c33.877 33.894 36.113 86.835 4.949 117.999l-66.679 66.662c-14.217 14.234-33.553 22.084-54.46 22.084-23.194 0-46.353-9.83-63.522-26.982l-40.636-40.653c-40.585-40.567-49.63-102.434-21.504-147.081 104.789-166.093 247.945-309.265 414.020-413.986 17.015-10.735 37.052-16.418 57.941-16.418 31.471 0 62.788 13.022 86.613 35.652 5.086-20.139 7.987-55.023-8.687-90.47-30.908-65.758-115.217-100.506-243.763-100.506-263.509 0-477.867 214.357-477.867 477.867 0 263.492 214.357 477.867 477.867 477.867s477.867-214.374 477.867-477.867c0-97.041-28.894-190.43-83.593-270.080-5.325-7.765-3.362-18.398 4.403-23.723 7.799-5.342 18.415-3.362 23.74 4.403 58.607 85.35 89.583 185.429 89.583 289.399 0 282.317-229.683 512-512 512zM638.106 170.735c-161.775 102.042-301.261 241.51-403.354 403.337-19.695 31.283-12.646 75.315 16.759 104.738l40.636 40.636c10.803 10.803 25.156 16.998 39.39 16.998 11.776 0 22.545-4.284 30.327-12.066l66.679-66.679c17.852-17.852 15.633-49.135-4.966-69.734l-24.644-24.678c-6.127-6.144-6.673-15.94-1.229-22.733 60.126-75.059 131.652-146.603 206.865-206.882 6.793-5.427 16.572-4.915 22.733 1.246l24.695 24.695c19.729 19.746 52.531 22.118 69.717 4.932l66.662-66.679c8.414-8.414 12.681-20.122 12.015-32.956-0.717-13.5-6.724-26.556-16.93-36.762l-40.653-40.636c-28.57-28.621-74.24-36.028-104.704-16.777z" />
<glyph unicode="&#x4b;" glyph-name="thin-phone-4" d="M588.629-39.697c24.030-15.872 51.917-24.252 80.691-24.252 39.049 0 75.742 15.172 103.27 42.735l50.091 50.091c19.49 19.473 30.225 45.38 30.225 72.926s-10.735 53.453-30.225 72.926l-91.324 91.29c-19.473 19.49-45.346 30.225-72.892 30.225s-53.47-10.735-72.943-30.225l-19.456-19.456c-91.477 76.237-179.319 164.079-255.454 255.471l19.49 19.456c40.158 40.209 40.158 105.643-0.017 145.852l-91.341 91.29c-19.473 19.49-45.346 30.225-72.926 30.225-27.546 0-53.453-10.718-72.926-30.208l-50.091-50.074c-48.845-48.862-56.61-126.208-18.466-183.945 146.995-222.208 342.135-417.348 564.292-564.326zM66.935 684.425l50.091 50.074c13.039 13.039 30.362 20.207 48.794 20.207s35.755-7.168 48.777-20.207l91.324-91.29c26.88-26.914 26.88-70.69 0.017-97.587l-30.447-30.413c-6.195-6.195-6.707-16.094-1.126-22.886 83.012-101.342 180.514-198.844 281.958-281.993 6.758-5.564 16.674-5.086 22.886 1.126l30.43 30.413c13.056 13.039 30.379 20.224 48.811 20.224 18.415 0 35.738-7.185 48.759-20.224l91.324-91.29c13.039-13.039 20.224-30.362 20.224-48.794s-7.185-35.755-20.224-48.794l-50.091-50.091c-21.094-21.111-49.203-32.734-79.138-32.734-22.050 0-43.435 6.434-61.85 18.603-218.385 144.469-410.18 336.265-554.667 554.667-29.218 44.254-23.296 103.543 14.148 140.988zM547.43 492.646c1.724-4.181 5.052-7.509 9.233-9.233 2.082-0.87 4.301-1.314 6.519-1.314h293.137c9.438 0 17.067 7.646 17.067 17.067s-7.629 17.067-17.067 17.067h-251.938l414.601 414.583c6.673 6.673 6.673 17.476 0 24.132-6.673 6.673-17.459 6.673-24.132 0l-414.601-414.583v251.938c0 9.421-7.629 17.067-17.067 17.067s-17.067-7.646-17.067-17.067v-293.154c0-0.017 0-0.017 0-0.034 0.017-2.202 0.461-4.403 1.314-6.468z" />
<glyph unicode="&#x4c;" glyph-name="thin-email-1" d="M887.467 755.2h-750.933c-60.279 0-102.4-42.103-102.4-102.4v-443.733c0-58.368 42.752-102.4 99.43-102.4h753.903c56.474 0 102.4 45.926 102.4 102.4v443.733c0 60.297-42.121 102.4-102.4 102.4zM887.467 721.067c13.363 0 24.986-3.038 34.884-8.209l-393.694-311.689-426.735 311.842c9.865 5.069 21.385 8.055 34.611 8.055h750.933zM955.733 209.067c0-38.281-29.986-68.267-68.267-68.267h-753.903c-37.837 0-65.297 28.706-65.297 68.267v443.733c0 13.892 3.243 25.958 8.806 36.096l441.924-322.953c3.004-2.185 6.537-3.277 10.069-3.277 3.755 0 7.492 1.229 10.598 3.686l407.313 322.458c5.53-10.138 8.755-22.153 8.755-36.011v-443.733z" />
<glyph unicode="&#x4d;" glyph-name="thin-email-2" d="M938.667 789.333h-853.333c-45.466 0-85.333-39.868-85.333-85.333v-512.751c0-45.056 39.868-84.582 85.333-84.582h853.333c45.466 0 85.333 39.526 85.333 84.582v512.751c0 45.466-39.868 85.333-85.333 85.333zM989.867 191.249c0-25.924-24.883-50.449-51.2-50.449h-853.333c-26.317 0-51.2 24.525-51.2 50.449v512.751c0 26.317 24.883 51.2 51.2 51.2h853.333c26.317 0 51.2-24.883 51.2-51.2v-512.751zM860.928 615.799l-348.928-232.619-348.928 232.619c-7.868 5.239-18.449 3.123-23.671-4.727s-3.106-18.449 4.727-23.671l358.4-238.933c2.867-1.911 6.178-2.867 9.472-2.867s6.605 0.956 9.472 2.867l358.4 238.933c7.834 5.222 9.95 15.821 4.727 23.671-5.239 7.851-15.838 9.967-23.671 4.727zM297.728 393.933l-153.6-102.4c-7.851-5.222-9.95-15.821-4.727-23.671 3.294-4.932 8.704-7.595 14.217-7.595 3.243 0 6.537 0.922 9.455 2.867l153.6 102.4c7.834 5.222 9.95 15.821 4.727 23.671s-15.838 9.967-23.671 4.727zM726.272 393.933c-7.868 5.239-18.449 3.123-23.671-4.727s-3.106-18.449 4.727-23.671l153.6-102.4c2.918-1.946 6.212-2.867 9.455-2.867 5.513 0 10.923 2.662 14.217 7.595 5.222 7.851 3.106 18.449-4.727 23.671l-153.6 102.4z" />
<glyph unicode="&#x4e;" glyph-name="thin-email-3" d="M675.823 342.187c-2.953 2.219-6.537 3.413-10.24 3.413h-307.2c-3.703 0-7.287-1.195-10.24-3.413l-204.8-153.6c-7.543-5.649-9.079-16.35-3.413-23.893 5.632-7.509 16.333-9.062 23.876-3.413l200.26 150.187h295.834l200.243-150.187c3.072-2.304 6.656-3.413 10.223-3.413 5.205 0 10.308 2.355 13.67 6.827 5.666 7.543 4.13 18.244-3.413 23.893l-204.8 153.6zM1023.488 571.477c-0.478 1.98-1.399 3.772-2.526 5.444-0.137 0.205-0.154 0.427-0.29 0.631-0.102 0.137-0.273 0.205-0.375 0.341-1.058 1.348-2.253 2.611-3.703 3.601l-494.933 341.333c-5.837 4.011-13.534 4.011-19.371 0l-494.933-341.333c-1.57-1.075-2.833-2.458-3.942-3.942-0.137-0.171-0.324-0.256-0.444-0.427s-0.137-0.393-0.239-0.563c-1.058-1.673-1.877-3.482-2.304-5.427-0.068-0.307-0.068-0.597-0.102-0.905-0.154-0.905-0.341-1.826-0.341-2.765v-477.867c0-46.251 37.376-85.333 81.63-85.333h860.757c24.030 0 45.261 8.175 59.767 23.006 14.865 15.206 22.426 36.898 21.845 62.327v477.867c0 1.246-0.188 2.458-0.444 3.635-0.034 0.137-0.017 0.256-0.051 0.375zM977.732 51.132c-10.308-10.53-24.917-12.732-35.362-12.732h-860.757c-25.293 0-47.497 23.927-47.497 51.2v445.423l246.34-169.353c2.935-2.031 6.315-3.004 9.643-3.004 5.427 0 10.769 2.577 14.080 7.407 5.325 7.765 3.362 18.398-4.403 23.74l-252.638 173.67 464.845 320.58 465.493-321.024-236.663-173.534c-7.595-5.581-9.233-16.265-3.669-23.859 3.362-4.557 8.533-6.98 13.79-6.98 3.499 0 7.031 1.075 10.086 3.294l228.83 167.817v-444.57c0.375-16.657-3.703-29.457-12.117-38.076z" />
<glyph unicode="&#x4f;" glyph-name="user" d="M512 320c-212.077 0-384-171.923-384-384v0h-64c0 247.424 200.576 448 448 448s448-200.576 448-448v0h-64c0 212.077-171.923 384-384 384v0zM512 448c-141.385 0-256 114.615-256 256s114.615 256 256 256c141.385 0 256-114.615 256-256v0c0-141.385-114.615-256-256-256v0zM512 896c-106.039 0-192-85.961-192-192s85.961-192 192-192c106.039 0 192 85.961 192 192v0c0 106.039-85.961 192-192 192v0z" />
<glyph unicode="&#x50;" glyph-name="suitcase" d="M960 0h-896c-35.346 0-64 28.654-64 64v0 576c0 35.346 28.654 64 64 64v0h192v128c0 35.346 28.654 64 64 64v0h384c35.346 0 64-28.654 64-64v0-128h192c35.346 0 64-28.654 64-64v0-576c0-35.346-28.654-64-64-64v0zM704 832h-384v-128h384v128zM960 640h-896v-576h896v576z" />
<glyph unicode="&#x51;" glyph-name="pin" d="M832 448v-192h-320v-320h-64v320h-320v192h64v320h-64v192h704v-192h-64v-320h64zM768 832v64h-576v-64h64v-448h-64v-64h576v64h-64v448h64zM320 832h64v-320h-64v320z" />
<glyph unicode="&#x61;" glyph-name="arrow-horizontal" d="M128 480.32c0-17.664 14.336-32 32-32h626.752l-137.344-137.344c-12.48-12.48-12.48-32.768 0-45.248s32.768-12.48 45.248 0l192 192c2.944 2.944 5.312 6.464 6.912 10.368 1.536 3.904 2.432 8 2.432 12.096 0 0.064 0 0.064 0 0.128v0c0 4.16-0.832 8.32-2.496 12.224-1.6 3.904-3.968 7.424-6.912 10.368l-192 192c-12.48 12.48-32.768 12.48-45.248 0s-12.48-32.768 0-45.248l137.408-137.344h-626.752c-17.664 0-32-14.336-32-32z" />
<glyph unicode="&#x62;" glyph-name="arrow-vertical" d="M544 64.32c17.664 0 32 14.336 32 32v626.752l137.344-137.344c12.48-12.48 32.768-12.48 45.248 0s12.48 32.768 0 45.248l-192 192c-2.944 2.944-6.464 5.248-10.368 6.848-7.808 3.264-16.64 3.264-24.448 0-3.84-1.536-7.232-3.84-10.176-6.72-0.064-0.064-0.128-0.064-0.256-0.128l-192-192c-12.48-12.48-12.48-32.768 0-45.248s32.768-12.48 45.248 0l137.408 137.344v-626.752c0-17.664 14.336-32 32-32z" />
<glyph unicode="&#x63;" glyph-name="arrow-horizontal-2" d="M613.088 423.456l24.128 24.128-193.12 193.12-24.128-24.128 168.992-168.992-168.192-168.192 24.128-24.128 96.416 96.416z" />
<glyph unicode="&#x64;" glyph-name="arrow-vertical-2" d="M536.544 550.112l-24.128 24.128-193.12-193.12 24.128-24.128 168.992 168.992 168.192-168.192 24.128 24.128-96.416 96.416z" />
<glyph unicode="&#x65;" glyph-name="arrow-horizontal-3" d="M234.667-64c-5.888 0-11.776 2.432-16 7.211-7.808 8.832-6.997 22.272 1.835 30.080l536.661 474.709-536.619 474.709c-8.832 7.808-9.685 21.248-1.877 30.080 7.808 8.875 21.333 9.685 30.123 1.835l554.667-490.667c4.565-4.053 7.211-9.813 7.211-15.957s-2.645-11.904-7.211-15.957l-554.667-490.667c-4.053-3.627-9.088-5.376-14.123-5.376z" />
<glyph unicode="&#x66;" glyph-name="arrow-vertical-3" d="M1002.709 149.333c-5.888 0-11.776 2.432-16 7.211l-474.667 536.576-474.709-536.576c-7.765-8.917-21.333-9.771-30.123-1.835-8.832 7.808-9.685 21.248-1.835 30.080l490.667 554.667c8.064 9.173 23.893 9.173 31.957 0l490.667-554.667c7.808-8.832 6.997-22.272-1.835-30.080-4.053-3.627-9.088-5.376-14.123-5.376z" />
<glyph unicode="&#x67;" glyph-name="plus" d="M288 384.32h224v-224c0-17.664 14.336-32 32-32s32 14.336 32 32v224h224c17.664 0 32 14.336 32 32s-14.336 32-32 32h-224v224c0 17.664-14.336 32-32 32s-32-14.336-32-32v-224h-224c-17.664 0-32-14.336-32-32s14.336-32 32-32z" />
<glyph unicode="&#x68;" glyph-name="minus" d="M288 384.32h512c17.664 0 32 14.336 32 32s-14.336 32-32 32h-512c-17.664 0-32-14.336-32-32s14.336-32 32-32z" />
<glyph unicode="&#x69;" glyph-name="close" d="M321.6 193.92c12.48-12.48 32.768-12.48 45.248 0l177.152 177.152 177.152-177.152c12.48-12.48 32.768-12.48 45.248 0s12.48 32.768 0 45.248l-177.152 177.152 177.152 177.152c12.48 12.48 12.48 32.768 0 45.248s-32.768 12.48-45.248 0l-177.152-177.152-177.152 177.152c-12.48 12.48-32.768 12.48-45.248 0s-12.48-32.768 0-45.248l177.152-177.152-177.152-177.152c-12.48-12.48-12.48-32.768 0-45.248z" />
<glyph unicode="&#x6a;" glyph-name="plus-large" d="M960 490.667h-448v448c0 11.776-9.557 21.333-21.333 21.333s-21.333-9.557-21.333-21.333v-448h-448c-11.776 0-21.333-9.557-21.333-21.333s9.557-21.333 21.333-21.333h448v-448c0-11.776 9.557-21.333 21.333-21.333s21.333 9.557 21.333 21.333v448h448c11.776 0 21.333 9.557 21.333 21.333s-9.557 21.333-21.333 21.333z" />
<glyph unicode="&#x6b;" glyph-name="minus-large" d="M1002.667 490.667h-981.333c-11.776 0-21.333-9.557-21.333-21.333s9.557-21.333 21.333-21.333h981.333c11.776 0 21.333 9.557 21.333 21.333s-9.557 21.333-21.333 21.333z" />
<glyph unicode="&#x6c;" glyph-name="close-large" d="M542.165 448l475.605 475.563c8.32 8.32 8.32 21.845 0 30.165s-21.845 8.32-30.165 0l-475.605-475.563-475.563 475.605c-8.32 8.32-21.845 8.32-30.165 0s-8.32-21.845 0-30.165l475.563-475.605-475.605-475.563c-8.32-8.32-8.32-21.845 0-30.165 4.181-4.181 9.643-6.272 15.104-6.272s10.923 2.091 15.104 6.229l475.563 475.605 475.563-475.563c4.181-4.181 9.643-6.272 15.104-6.272s10.923 2.091 15.104 6.229c8.32 8.32 8.32 21.845 0 30.165l-475.605 475.605z" />
<glyph unicode="&#x6d;" glyph-name="menu" d="M224 448.32h576c17.664 0 32 14.336 32 32s-14.336 32-32 32h-576c-17.664 0-32-14.336-32-32s14.336-32 32-32zM224 640.32h576c17.664 0 32 14.336 32 32s-14.336 32-32 32h-576c-17.664 0-32-14.336-32-32s14.336-32 32-32zM224 256.32h576c17.664 0 32 14.336 32 32s-14.336 32-32 32h-576c-17.664 0-32-14.336-32-32s14.336-32 32-32z" />
<glyph unicode="&#x6e;" glyph-name="comment" d="M60.736 20.096c5.248-11.264 16.576-18.432 28.992-18.432 91.84 0 169.536 22.336 257.792 74.368 42.816-6.784 127.36-15.168 164.48-15.168 280.192 0 508.096 187.072 508.096 417.088s-227.904 417.024-508.096 417.024-508.096-187.008-508.096-417.024c0-108.416 52.288-213.184 144.32-290.816-20.864-47.36-48.704-92.032-83.008-132.928-7.936-9.6-9.728-22.912-4.48-34.112zM67.904 477.952c0 194.688 199.232 353.088 444.096 353.088s444.096-158.4 444.096-353.088-199.232-353.088-444.096-353.088c-36.736 0-132.352 9.856-164.672 16.128-7.808 1.408-15.936-0.064-22.72-4.096-59.648-36.48-111.68-57.344-167.36-66.176 24 36.352 43.968 74.752 59.52 114.752 5.184 13.376 0.96 28.48-10.496 37.12-89.28 67.584-138.368 158.336-138.368 255.36z" />
<glyph unicode="&#x6f;" glyph-name="folder" d="M960 768h-289.024c-35.328 0-75.968-17.984-94.976-64 0 0-8.32-58.688-64-64h-448c-35.328 0-64-27.648-64-62.976v-577.024c0-35.328 28.672-64 64-64h896c35.328 0 64 28.672 64 64v704c0 35.328-28.672 64-64 64zM960 577.024v-577.024h-896v576h448c2.048 0 4.032 0.128 6.080 0.32 60.032 5.696 97.152 47.68 114.304 90.88 16.64 41.792 45.632 36.8 45.632 36.8h281.984v-126.976z" />
<glyph unicode="&#x70;" glyph-name="tag" d="M929.856 895.68c-0.576 0-1.152 0-1.728 0-0.512 0-0.96 0.064-1.472 0h-402.368c-9.792-0.448-32.064-15.744-34.944-18.624l-470.656-470.656c-24.96-24.96-24.96-65.408 0-90.368l361.344-361.344c12.544-12.48 28.864-18.688 45.184-18.688s32.704 6.208 45.184 18.688l470.656 470.656c2.88 2.88 18.944 22.656 18.944 34.944v403.648c0.896 17.856-12.608 31.744-30.144 31.744zM896 472.256c-0.96-1.472-1.92-3.008-2.816-4.224l-467.904-468.032-361.344 361.152 468.032 468.032c1.28 0.896 2.752 1.856 4.288 2.816h359.744v-359.744zM768 736c0-17.673 14.327-32 32-32s32 14.327 32 32c0 17.673-14.327 32-32 32s-32-14.327-32-32z" />
<glyph unicode="&#x71;" glyph-name="quote" d="M0 832v-768l384 384v384zM640 832v-768l384 384v384z" />
<glyph unicode="&#x72;" glyph-name="cart" horiz-adv-x="1037" d="M192 0c0-35.346 28.654-64 64-64s64 28.654 64 64c0 35.346-28.654 64-64 64s-64-28.654-64-64zM768 0c0-35.346 28.654-64 64-64s64 28.654 64 64c0 35.346-28.654 64-64 64s-64-28.654-64-64zM-1.856 800c0-17.664 14.336-32 32-32h66.496l39.744-169.984 55.616-278.016c0-2.304 1.088-4.288 1.344-6.528l-32.576-146.56c-2.112-9.472 0.192-19.392 6.272-26.944 6.080-7.616 15.232-11.968 24.96-11.968h726.016c17.664 0 32 14.336 32 32s-14.336 32-32 32h-686.080l14.656 65.92c3.2-0.512 6.080-1.92 9.408-1.92h583.36c35.328 0 56.64 6.976 73.664 48l103.936 318.848c18.048 57.152-21.568 81.152-56.96 81.152h-768c-4.992 0-9.344-1.728-14.016-2.816l-24.832 106.112c-3.392 14.464-16.256 24.704-31.168 24.704h-91.84c-17.728 0-32-14.336-32-32zM193.28 640h761.92l-102.144-313.536c-1.216-2.752-2.24-4.736-3.008-6.080-2.112-0.192-5.44-0.384-10.688-0.384h-583.36v6.336l-1.216 6.208-61.504 307.456z" />
<glyph unicode="&#x73;" glyph-name="search" d="M603.324 960c-227.993 0-412.801-184.808-412.801-412.801 0-98.12 34.421-188.174 91.578-259.048l-272.83-272.83c-17.147-17.147-17.147-45.027 0-62.174s45.027-17.147 62.174 0l272.83 272.83c70.875-57.157 160.929-91.578 259.048-91.578 227.993 0 412.801 184.808 412.801 412.801s-184.808 412.801-412.801 412.801zM603.324 197.906c-192.619 0-349.293 156.674-349.293 349.293s156.674 349.293 349.293 349.293 349.293-156.674 349.293-349.293-156.674-349.293-349.293-349.293z" />
<glyph unicode="&#x74;" glyph-name="location" d="M480 896c194.112 0 352-157.888 352-352 0-256.192-258.176-463.744-352-530.688-93.888 67.008-352 274.56-352 530.688 0 194.112 157.888 352 352 352zM480 320c123.52 0 224 100.48 224 224s-100.48 224-224 224-224-100.48-224-224 100.48-224 224-224zM480 960c-229.76 0-416-186.24-416-416 0-352 416-608 416-608s416 256 416 608c0 229.76-186.24 416-416 416v0zM480 384c-88.32 0-160 71.68-160 160s71.68 160 160 160 160-71.68 160-160-71.68-160-160-160v0z" />
<glyph unicode="&#x75;" glyph-name="email" d="M64 896c-35.346 0-64-28.654-64-64v-768c0-35.346 28.654-64 64-64h896c35.346 0 64 28.654 64 64v768c0 35.346-28.654 64-64 64h-896zM64 832h896v-768h-896v768zM510.016 320l-446.016 448v64l446.016-448 449.984 448v-64z" />
<glyph unicode="&#x76;" glyph-name="mobile" d="M832-64h-640c-35.346 0-64 28.654-64 64v896c0 35.346 28.654 64 64 64h640c35.346 0 64-28.654 64-64v-896c0-35.346-28.654-64-64-64zM832 896h-640v-128h640v128zM832 704h-640v-448h640v448zM192 192v-192h640v192h-640zM448 64v64h128v-64h-128z" />
<glyph unicode="&#x77;" glyph-name="tick-1" d="M512-7.111c-251.351 0-455.111 203.76-455.111 455.111s203.76 455.111 455.111 455.111c251.351 0 455.111-203.76 455.111-455.111s-203.76-455.111-455.111-455.111zM512 846.222c-219.932 0-398.222-178.29-398.222-398.222s178.29-398.222 398.222-398.222c219.932 0 398.222 178.29 398.222 398.222s-178.29 398.222-398.222 398.222zM270.62 424.448l40.22 40.22 120.661-120.661 281.6 281.6 40.22-40.22-321.764-321.877z" />
<glyph unicode="&#x78;" glyph-name="tick-2" d="M512 903.111c-251.351 0-455.111-203.76-455.111-455.111s203.76-455.111 455.111-455.111c251.351 0 455.111 203.76 455.111 455.111s-203.76 455.111-455.111 455.111zM753.38 585.33l-321.82-321.82-160.939 160.939 40.22 40.22 120.661-120.661 281.6 281.6z" />
<glyph unicode="&#x79;" glyph-name="tick-3" d="M441.216 141.184c1.28-1.024 2.048-2.432 3.392-3.392 1.92-1.28 4.096-1.536 6.144-2.432 2.432-1.152 4.8-2.24 7.36-2.944 2.496-0.64 4.928-0.96 7.488-1.152 3.648-0.384 7.168-0.384 10.752 0.128 1.472 0.256 2.88 0.64 4.352 1.024 4.416 1.088 8.512 2.816 12.544 5.248 0.704 0.448 1.28 0.96 1.984 1.408 2.624 1.792 5.44 3.136 7.68 5.568 1.6 1.728 2.304 3.968 3.584 5.888 0.064 0.064 0.192 0.128 0.192 0.192l381.376 611.264c13.568 20.672 7.744 48.448-12.992 62.016s-48.448 7.744-62.016-12.992l-352.256-564.544-194.816 189.504c-18.176 16.832-46.464 15.744-63.296-2.432-16.768-18.176-15.68-46.528 2.496-63.296l234.368-228.032c0.448-0.448 1.088-0.576 1.664-1.024z" />
<glyph unicode="&#x7a;" glyph-name="clock" horiz-adv-x="1049" d="M546.112 891.712c-122.304 0-244.608-46.656-337.92-139.968-186.624-186.624-186.624-489.216 0-675.776 93.376-93.312 215.616-139.968 337.92-139.968s244.608 46.656 337.92 139.968c186.624 186.624 186.624 489.216 0 675.776-93.312 93.312-215.616 139.968-337.92 139.968zM838.784 121.216c-78.144-78.144-182.080-121.216-292.672-121.216-110.528 0-214.464 43.072-292.672 121.216-78.144 78.144-121.216 182.080-121.216 292.672s43.072 214.464 121.216 292.672c78.144 78.144 182.080 121.216 292.672 121.216 110.528 0 214.464-43.072 292.672-121.216s121.216-182.144 121.216-292.672-43.072-214.528-121.216-292.672zM736 448h-160v224.448c0 17.664-14.336 32-32 32s-32-14.336-32-32v-256.256c0 0 0-0.064 0-0.064v-0.128c0-17.664 14.336-32 32-32h192c17.664 0 32 14.336 32 32s-14.336 32-32 32z" />
</font>
</defs>
</svg>
